<?xml version="1.0" standalone="no"?>
<!DOCTYPE svg PUBLIC "-//W3C//DTD SVG 20010904//EN"
 "http://www.w3.org/TR/2001/REC-SVG-20010904/DTD/svg10.dtd">
<svg version="1.0" xmlns="http://www.w3.org/2000/svg"
 width="100.000000pt" height="100.000000pt" viewBox="0 0 100.000000 100.000000"
 preserveAspectRatio="xMidYMid meet">
<metadata>
Created by potrace 1.11, written by Peter Selinger 2001-2013
</metadata>
<g transform="translate(0.000000,100.000000) scale(0.100000,-0.100000)"
fill="#000000" stroke="none">
<path d="M410 985 c-7 -8 -25 -15 -40 -15 -15 0 -33 -7 -41 -16 -7 -8 -21 -13
-31 -11 -12 3 -23 -2 -31 -14 -6 -10 -22 -19 -35 -19 -15 0 -26 -8 -32 -24 -5
-14 -19 -26 -32 -28 -15 -2 -24 -11 -26 -26 -2 -13 -14 -27 -28 -32 -16 -6
-24 -17 -24 -32 0 -13 -9 -29 -19 -35 -12 -8 -17 -19 -14 -31 2 -10 -3 -24
-11 -31 -9 -8 -16 -26 -16 -41 0 -15 -7 -33 -15 -40 -11 -9 -12 -16 -2 -31 9
-15 9 -23 -1 -39 -10 -16 -10 -24 0 -40 10 -16 10 -24 1 -39 -10 -15 -9 -22 2
-31 8 -7 15 -25 15 -40 0 -15 7 -33 16 -41 8 -7 13 -21 11 -31 -3 -12 2 -23
14 -31 10 -6 19 -22 19 -35 0 -15 8 -26 24 -32 14 -5 26 -19 28 -32 2 -15 11
-24 26 -26 13 -2 27 -14 32 -28 6 -16 17 -24 32 -24 13 0 29 -9 35 -19 8 -12
19 -17 31 -14 10 2 24 -3 31 -11 8 -9 26 -16 41 -16 15 0 33 -7 40 -15 9 -11
16 -12 31 -2 15 9 23 9 39 -1 16 -10 24 -10 40 0 16 10 24 10 39 1 15 -10 22
-9 31 2 7 8 25 15 40 15 15 0 33 7 41 16 7 8 21 13 31 11 12 -3 23 2 31 14 6
10 22 19 35 19 15 0 26 8 32 24 5 14 19 26 32 28 15 2 24 11 26 26 2 13 14 27
28 32 16 6 24 17 24 32 0 13 9 29 19 35 12 8 17 19 14 31 -2 10 3 24 11 31 9
8 16 26 16 41 0 15 7 33 15 40 11 9 12 16 2 31 -9 15 -9 23 1 39 10 16 10 24
0 40 -10 16 -10 24 -1 39 10 15 9 22 -2 31 -8 7 -15 25 -15 40 0 15 -7 33 -16
41 -8 7 -13 21 -11 31 3 12 -2 23 -14 31 -10 6 -19 22 -19 35 0 15 -8 26 -24
32 -14 5 -26 19 -28 32 -2 15 -11 24 -26 26 -13 2 -27 14 -32 28 -6 16 -17 24
-32 24 -13 0 -29 9 -35 19 -8 12 -19 17 -31 14 -10 -2 -24 3 -31 11 -8 9 -26
16 -41 16 -15 0 -33 7 -40 15 -9 11 -16 12 -31 2 -15 -9 -23 -9 -39 1 -16 10
-24 10 -40 0 -16 -10 -24 -10 -39 -1 -15 10 -22 9 -31 -2z m160 -55 c224 -43
373 -234 357 -460 -18 -268 -283 -456 -542 -385 -124 33 -223 116 -277 231
-79 169 -51 349 77 483 65 69 132 107 218 126 78 17 101 18 167 5z"/>
<path d="M414 915 c-126 -27 -235 -109 -289 -215 -133 -262 20 -563 311 -613
272 -47 524 205 477 477 -32 187 -170 326 -353 355 -77 13 -69 13 -146 -4z
m197 -31 c149 -44 250 -160 280 -319 21 -115 -25 -259 -111 -345 -86 -86 -230
-132 -345 -111 -212 39 -345 208 -333 422 15 255 262 426 509 353z"/>
<path d="M369 827 c-149 -62 -225 -184 -217 -345 6 -136 77 -245 197 -301 48
-22 69 -26 151 -26 82 0 103 4 151 26 72 34 134 96 168 168 22 48 26 69 26
151 0 82 -4 103 -26 151 -34 73 -96 134 -168 167 -81 38 -203 42 -282 9z m193
-258 l-4 -70 31 16 c27 13 36 14 59 3 24 -12 27 -19 30 -73 2 -42 8 -64 19
-72 14 -11 10 -13 -26 -13 -36 0 -42 2 -32 14 7 8 11 37 9 67 -4 62 -22 80
-62 61 -23 -10 -26 -17 -26 -66 0 -42 4 -57 18 -65 13 -8 5 -10 -33 -10 -27 1
-42 3 -32 6 15 4 17 19 17 124 0 88 -3 119 -12 119 -11 1 29 29 42 30 3 0 3
-32 2 -71z"/>
</g>
</svg>
